<svg width="150" height="32" viewBox="0 0 150 32" fill="none" xmlns="http://www.w3.org/2000/svg"><path d="M38.615 24.28q-1.54 0-2.744-.644a5.1 5.1 0 0 1-1.904-1.82q-.672-1.148-.672-2.604v-3.864q0-1.456.7-2.604a4.9 4.9 0 0 1 1.904-1.792q1.204-.672 2.716-.672 1.82 0 3.276.952a6.44 6.44 0 0 1 2.324 2.52q.868 1.567.868 3.556 0 1.96-.868 3.556a6.5 6.5 0 0 1-2.324 2.492q-1.456.924-3.276.924m-7.196 5.32V10.56h3.08v3.612l-.532 3.276.532 3.248V29.6zm6.692-8.232q1.12 0 1.96-.504a3.6 3.6 0 0 0 1.344-1.456q.504-.924.504-2.128t-.504-2.128a3.43 3.43 0 0 0-1.344-1.428q-.84-.532-1.96-.532t-1.988.532a3.43 3.43 0 0 0-1.344 1.428q-.476.924-.476 2.128t.476 2.128a3.6 3.6 0 0 0 1.344 1.456q.868.504 1.988.504M47.66 24V10.56h3.08V24zm3.08-7.476-1.064-.532q0-2.548 1.12-4.116 1.149-1.596 3.444-1.596 1.008 0 1.82.364.811.365 1.512 1.176l-2.016 2.072a2.1 2.1 0 0 0-.812-.56 3 3 0 0 0-1.036-.168q-1.288 0-2.128.812-.84.811-.84 2.548m14.156 7.756q-2.016 0-3.64-.896a7 7 0 0 1-2.548-2.52q-.924-1.596-.924-3.584t.924-3.556a6.87 6.87 0 0 1 2.492-2.52q1.596-.924 3.528-.924 1.876 0 3.304.868a6.05 6.05 0 0 1 2.268 2.38q.84 1.512.84 3.444 0 .336-.056.7a7 7 0 0 1-.112.756H59.941v-2.52h9.436l-1.148 1.008q-.056-1.232-.476-2.072a3 3 0 0 0-1.204-1.288q-.756-.448-1.876-.448-1.176 0-2.044.504a3.43 3.43 0 0 0-1.344 1.428q-.476.896-.476 2.156t.504 2.212 1.428 1.484q.925.504 2.128.504 1.037 0 1.904-.364a4 4 0 0 0 1.512-1.064l1.96 1.988a6.3 6.3 0 0 1-2.38 1.736 7.6 7.6 0 0 1-2.968.588m15.91 0q-1.54 0-2.745-.644a5.1 5.1 0 0 1-1.904-1.82q-.672-1.148-.672-2.604v-3.864q0-1.456.7-2.604a4.9 4.9 0 0 1 1.904-1.792q1.204-.672 2.716-.672 1.821 0 3.276.952a6.44 6.44 0 0 1 2.324 2.52q.868 1.567.868 3.556 0 1.96-.868 3.556a6.5 6.5 0 0 1-2.324 2.492q-1.455.924-3.276.924M73.61 24V3.84h3.08v10.024l-.532 3.248.532 3.276V24zm6.692-2.632q1.12 0 1.96-.504a3.6 3.6 0 0 0 1.344-1.456q.504-.924.504-2.128t-.504-2.128a3.43 3.43 0 0 0-1.344-1.428q-.84-.532-1.96-.532t-1.988.532a3.43 3.43 0 0 0-1.344 1.428q-.476.924-.476 2.128t.476 2.128a3.6 3.6 0 0 0 1.344 1.456q.869.504 1.988.504m15.066 2.912q-1.707 0-3.051-.756a5.5 5.5 0 0 1-2.072-2.072q-.729-1.344-.729-3.08V10.56h3.08v7.672q0 .98.308 1.68.337.672.953 1.036.644.364 1.511.364 1.345 0 2.044-.784.728-.812.728-2.296V10.56h3.081v7.812q0 1.764-.756 3.108a5.3 5.3 0 0 1-2.044 2.072q-1.317.728-3.053.728m8.977-.28V10.56h3.08V24zm1.54-15.904a1.8 1.8 0 0 1-1.316-.532q-.504-.532-.504-1.316t.504-1.316a1.8 1.8 0 0 1 1.316-.532q.813 0 1.316.532t.504 1.316q0 .784-.504 1.316t-1.316.532M110.88 24V3.84h3.08V24zm8.552 0V4.96h3.08V24zm-3.22-10.64v-2.8h9.52v2.8z" fill="#1F2937"/><path d="M133.486 24.28q-1.708 0-3.052-.756a5.5 5.5 0 0 1-2.072-2.072q-.728-1.344-.728-3.08V10.56h3.08v7.672q0 .98.308 1.68.336.672.952 1.036.643.364 1.512.364 1.344 0 2.044-.784.728-.812.728-2.296V10.56h3.08v7.812q0 1.764-.756 3.108a5.3 5.3 0 0 1-2.044 2.072q-1.317.728-3.052.728m8.977-.28V10.56h3.08V24zm1.54-15.904q-.785 0-1.316-.532-.504-.532-.504-1.316t.504-1.316a1.8 1.8 0 0 1 1.316-.532q.812 0 1.316.532t.504 1.316-.504 1.316-1.316.532" fill="#6366F1"/><path d="m8.438 9.736 5.062 2.925 5.063-2.925M8.438 27.264v-5.84L3.375 18.5m20.25 0-5.062 2.925v5.839M3.678 12.83l9.822 5.68 9.821-5.681M13.5 29.84V18.5M23.625 23v-9a2.25 2.25 0 0 0-1.125-1.946l-7.875-4.5a2.25 2.25 0 0 0-2.25 0l-7.875 4.5A2.25 2.25 0 0 0 3.375 14v9A2.25 2.25 0 0 0 4.5 24.946l7.875 4.5a2.25 2.25 0 0 0 2.25 0l7.875-4.5A2.25 2.25 0 0 0 23.625 23" stroke="#1F2937" stroke-width="2.3" stroke-linecap="round" stroke-linejoin="round"/></svg>